<svg width="304" height="263" viewBox="0 0 304 263" fill="none" xmlns="http://www.w3.org/2000/svg">
<path d="M225.575 0.000223844C215.285 -0.0244414 205.093 1.98952 195.586 5.9258C186.08 9.86208 177.447 15.6427 170.187 22.9338L77.7161 115.273L59.3061 96.8631C56.5675 94.5235 54.3424 91.6426 52.7708 88.4016C51.1992 85.1605 50.3151 81.6295 50.1739 78.0303C50.0327 74.4311 50.6376 70.8416 51.9505 67.4874C53.2635 64.1333 55.256 61.087 57.803 58.54C60.35 55.993 63.3963 54.0005 66.7504 52.6875C70.1046 51.3746 73.6941 50.7697 77.2933 50.9109C80.8925 51.0521 84.4235 51.9362 87.6645 53.5078C90.9056 55.0794 93.7864 57.3045 96.1261 60.0431L132.946 23.2231C118.184 8.87974 98.3714 0.921279 77.7894 1.06794C57.2074 1.2146 37.5098 9.45459 22.9541 24.0069C8.39834 38.5592 0.153672 58.2549 0.00212651 78.8368C-0.149419 99.4187 7.80433 119.234 22.1442 133.999L77.532 189.413L259.002 7.94282C248.587 2.84634 237.169 0.133133 225.575 0.000223844Z" fill="#782BF1"/>
<path d="M296.163 44.71L225.574 115.273L207.164 96.8629L170.344 133.683L188.754 152.093L114.667 226.18L151.487 263L280.804 133.735C292.241 122.297 299.857 107.599 302.607 91.6594C305.357 75.7196 303.106 59.3194 296.163 44.71Z" fill="#782BF1"/>
</svg>